<svg width="66" height="56" viewBox="0 0 66 56" fill="none" xmlns="http://www.w3.org/2000/svg">
<path d="M29.2704 0C28.7039 0 28.3262 0.28035 28.0429 0.630789L0.283262 48.3605C0.0944206 48.7109 0 49.2716 0 49.6921V55.3692C0 55.7197 0.377682 56 0.849785 56H65.1502C65.6223 56 66 55.7197 66 55.3692V49.6921C66 49.3417 65.9056 48.7109 65.7167 48.3605L37.9571 0.630789C37.7682 0.28035 37.2961 0 36.7296 0H29.0815L29.2704 0ZM28.4206 21.0263H37.8627V35.0438H28.4206V21.0263ZM28.4206 42.0526H37.8627V49.0613H28.4206V42.0526Z" fill="#DC0505"/>
</svg>
